<?xml version="1.0" encoding="UTF-8" standalone="no"?>
<!-- Created with Inkscape (http://www.inkscape.org/) -->

<svg
   xmlns:dc="http://purl.org/dc/elements/1.1/"
   xmlns:cc="http://creativecommons.org/ns#"
   xmlns:rdf="http://www.w3.org/1999/02/22-rdf-syntax-ns#"
   xmlns:svg="http://www.w3.org/2000/svg"
   xmlns="http://www.w3.org/2000/svg"
   xmlns:sodipodi="http://sodipodi.sourceforge.net/DTD/sodipodi-0.dtd"
   xmlns:inkscape="http://www.inkscape.org/namespaces/inkscape"
   width="1544.3199mm"
   height="1029.5466mm"
   viewBox="0 0 5471.9998 3647.9999"
   id="svg2"
   version="1.1"
   inkscape:version="0.91 r13725"
   sodipodi:docname="apoplexy.svg">
  <defs
     id="defs4" />
  <sodipodi:namedview
     id="base"
     pagecolor="#ffffff"
     bordercolor="#666666"
     borderopacity="1.0"
     inkscape:pageopacity="0.0"
     inkscape:pageshadow="2"
     inkscape:zoom="2.8284271"
     inkscape:cx="1884.9192"
     inkscape:cy="797.76635"
     inkscape:document-units="px"
     inkscape:current-layer="layer1"
     showgrid="false"
     fit-margin-top="0"
     fit-margin-left="0"
     fit-margin-right="0"
     fit-margin-bottom="0"
     inkscape:window-width="1920"
     inkscape:window-height="1023"
     inkscape:window-x="0"
     inkscape:window-y="0"
     inkscape:window-maximized="1" />
  <metadata
     id="metadata7">
    <rdf:RDF>
      <cc:Work
         rdf:about="">
        <dc:format>image/svg+xml</dc:format>
        <dc:type
           rdf:resource="http://purl.org/dc/dcmitype/StillImage" />
        <dc:title></dc:title>
      </cc:Work>
    </rdf:RDF>
  </metadata>
  <g
     inkscape:label="Layer 1"
     inkscape:groupmode="layer"
     id="layer1"
     transform="translate(1964.5714,940.20923)">
    <path
       style="fill:#000000;fill-rule:evenodd;stroke:#000000;stroke-width:0;stroke-linecap:butt;stroke-linejoin:miter;stroke-opacity:1;fill-opacity:1;opacity:1;stroke-miterlimit:4;stroke-dasharray:none"
       d="M -647.58938,393.58136 -384.0221,39.490523 C -265.16406,-105.5645 -142.02209,-247.19237 -13.642437,-384.6301 c 23.776715,-14.17615 55.578354,-23.20842 112.695147,-12.05869 57.61144,42.0511 112.45913,88.24782 166.27992,135.98489 l 71.1574,61.24389 c 33.42542,19.1896 56.41842,36.9566 68.89146,53.28905 23.59593,46.595433 35.24233,115.865198 30.53919,156.992064 -5.12738,11.39327 -11.37935,25.769757 -22.92595,39.236183 -34.9695,40.783769 -84.23338,97.969443 -121.5079,146.213423 66.534,48.78099 130.91458,100.20323 196.90363,148.14187 25.88319,18.80319 55.8059,38.45431 69.52413,55.90894 10.77477,14.66276 5.0474,29.93849 4.57847,45.85055 l 167.7044,133.89552 185.31113,164.71603 354.32891,-413.09117 c 29.6416,-38.22888 60.5729,-77.01803 82.3095,-119.51182 20.9324,-37.90052 40.0643,-72.41541 68.4379,-104.29818 78.6007,-93.728922 155.2895,-187.272916 244.2043,-278.42334 18.1574,-11.61347 34.7796,-28.9659 61.6193,-13.8896 L 1948.6421,5.3519191 c 20.1909,25.2939389 7.821,44.5865769 -5.5283,63.8339179 L 1748.6959,302.68795 c -27.1773,27.26966 -50.1463,59.21518 -74.5628,89.55237 l -140.6353,118.24391 c -46.0711,46.91411 -92.1422,103.59264 -138.2133,156.5711 l -242.1835,279.22308 573.5675,463.26789 c 148.4437,131.4826 304.7786,253.4957 462.6424,373.6741 15.6845,27.2845 35.8808,47.0962 31.0623,108.3389 -9.3533,28.4249 -22.5665,56.0181 -39.7966,80.6209 -39.7468,58.4885 -83.9898,110.4057 -136.0963,150.8303 -26.0826,24.6717 -62.2227,45.0508 -92.0195,48.7282 -28.3779,0.3391 -56.6382,0.1053 -81.2867,-17.7363 L 1690.5302,1987.2152 1551.071,1871.5596 1353.1571,1711.8783 C 1254.6502,1631.804 1157.7616,1547.3856 1063.5683,1458.175 997.174,1397.9844 931.15104,1337.5463 862.00898,1279.1876 l -699.00099,813.0763 c -24.90794,16.6228 -56.35657,13.1205 -89.966695,2.9673 -45.579031,-27.0529 -85.762463,-61.6596 -121.241048,-102.8532 -27.490567,-34.0262 -28.068282,-70.6863 -23.336973,-97.2832 C -40.634237,1851.0493 -3.0315158,1813.7041 31.46237,1773.25 228.11934,1542.6264 427.4338,1312.8886 620.92303,1081.209 501.18397,991.67478 384.50358,894.49382 270.1497,791.49658 248.15635,802.21542 226.43924,802.98967 205.11882,789.4828 L -27.216333,588.96752 -142.1667,725.82531 c -16.9099,10.33499 -35.14213,18.93443 -57.40684,22.24124 -10.83747,1.14496 -22.25211,1.58127 -32.80429,-0.066 -20.99411,-3.27727 -40.68738,-10.57574 -60.42124,-7.36524 -25.45793,0.84244 -49.49994,5.79107 -79.42853,-6.33142 -90.47223,-69.36859 -211.05948,-166.52491 -264.14881,-222.64154 -7.18226,-11.07331 -14.36452,-36.17515 -21.54678,-64.71332 -2.37,-20.79677 -1.03645,-39.67792 10.33381,-53.36767 z"
       id="path4200"
       inkscape:connector-curvature="0"
       sodipodi:nodetypes="ccccccccscscccccccccccccccccccccccccccccccccccccccsccccc" />
    <path
       style="fill:#14181a;fill-rule:evenodd;stroke:#14181a;stroke-width:0;stroke-linecap:butt;stroke-linejoin:miter;stroke-opacity:1;fill-opacity:1;opacity:1;stroke-miterlimit:4;stroke-dasharray:none"
       d="m 1570.9623,1847.1406 257.4384,-307.2036 c 108.8613,89.4574 220.8708,174.9797 333.5008,259.7264 31.074,41.7612 39.6406,80.5347 16.938,115.1574 -44.8795,81.4635 -104.8482,150.1956 -180.2038,205.9449 -47.4203,28.0368 -89.0927,32.0042 -121.2961,-3.6798 -100.0161,-94.201 -203.7037,-181.0592 -306.3773,-269.9453 z"
       id="path4208"
       inkscape:connector-curvature="0"
       sodipodi:nodetypes="ccccccc" />
    <path
       style="opacity:1;fill:#3b495a;fill-opacity:1;fill-rule:evenodd;stroke:#3b495a;stroke-width:0;stroke-linecap:butt;stroke-linejoin:miter;stroke-miterlimit:4;stroke-dasharray:none;stroke-opacity:1"
       d="m 1706.5753,-160.79017 -22.5138,15.10809 -6.7806,8.50423 235.4689,195.86123 5.8929,-7.14286 12.5,-20.98214 z"
       id="path4210"
       inkscape:connector-curvature="0"
       sodipodi:nodetypes="ccccccc" />
    <path
       style="fill:#14181a;fill-rule:evenodd;stroke:#14181a;stroke-width:0;stroke-linecap:butt;stroke-linejoin:miter;stroke-opacity:1;fill-opacity:1;opacity:1;stroke-miterlimit:4;stroke-dasharray:none"
       d="M 288.00544,764.83783 543.80136,470.90242 c -4.66298,-3.06416 -9.04746,-6.44965 -10.69508,-12.99307 -2.44317,-5.46715 -3.66154,-11.93349 2.74009,-24.61614 1.51202,-10.8992 -1.685,-17.49532 -6.98485,-22.16988 L 269.62064,216.69756 c -14.42155,-12.92979 -11.93581,-25.01421 -2.89534,-36.77089 41.39738,-52.975 84.69657,-105.474541 129.86518,-157.506729 10.42359,-13.862091 13.31843,-32.0595472 9.59019,-58.203722 -3.30281,-38.573276 -10.87351,-64.359179 -20.783,-83.141729 -5.5103,-9.84612 -12.14423,-18.89909 -21.64346,-25.92949 -14.36641,-10.24694 -28.94156,-19.24143 -43.6408,-27.49138 -73.87045,-67.43591 -151.95772,-133.29051 -233.36821,-197.89891 -24.926622,-3.11406 -46.082579,-2.17933 -65.3431,2.03921 -26.0180762,10.81953 -54.155773,54.60819 -83.478766,85.12481 -90.768664,94.46351 -164.449864,181.25731 -241.501134,272.04622 l -64.70029,80.610154 -236.5998,316.110286 -19.01927,25.24555 c -2.08983,5.62187 -4.98991,19.66124 -3.48894,33.41073 2.83802,16.1928 9.59626,34.01321 18.3382,54.4473 80.39569,74.79916 167.48475,144.18228 257.844,213.0033 25.63905,1.45539 50.93801,1.38038 75.9104,-0.1642 30.16775,2.05429 31.96114,3.14917 52.76788,6.54075 1.73594,0.40807 18.58171,-0.13756 21.06255,-0.0291 5.46966,0.23905 27.57586,-6.88605 44.69839,-20.74214 L -48.312227,564.54989 c 9.115151,-10.30588 20.162478,-13.60761 34.601627,-4.61399 l 228.88402,197.7425 c 11.1484,12.17065 23.61854,14.4282 37.12315,8.92722 l 15.29116,-6.54066 c 8.94719,-1.38304 15.71309,0.26349 20.41771,4.7729 z"
       id="path4212"
       inkscape:connector-curvature="0"
       sodipodi:nodetypes="ccccccccccccccscccccccccscccccccc" />
    <path
       style="fill:#3b495a;fill-rule:evenodd;stroke:#3b495a;stroke-width:0;stroke-linecap:butt;stroke-linejoin:miter;stroke-opacity:1;fill-opacity:1;opacity:1;stroke-miterlimit:4;stroke-dasharray:none"
       d="M 291.80613,656.47379 496.16,423.83567 C 391.21306,346.58066 285.4246,263.43498 182.2046,198.26857 c -47.71847,8.98268 -69.23607,53.69383 -97.5807,89.0954 z"
       id="path4242"
       inkscape:connector-curvature="0"
       sodipodi:nodetypes="ccccc" />
    <path
       style="fill:#3b495a;fill-rule:evenodd;stroke:#3b495a;stroke-width:0;stroke-linecap:butt;stroke-linejoin:miter;stroke-opacity:1;fill-opacity:1;opacity:1;stroke-miterlimit:4;stroke-dasharray:none"
       d="m 50.9284,-350.70948 253.5,229 -181.07594,263.85545 -142.67326,194.0084 -330.2189,336.5828 -272.5319,-228.6966 280.25,-406.87505 33.75,-42.5 z"
       id="path4244"
       inkscape:connector-curvature="0"
       sodipodi:nodetypes="ccccccccc" />
    <path
       style="fill:#ca9a54;fill-rule:evenodd;stroke:#ca9a54;stroke-width:0;stroke-linecap:butt;stroke-linejoin:miter;stroke-opacity:1;fill-opacity:1;opacity:1;stroke-miterlimit:4;stroke-dasharray:none"
       d="m -26.8216,1967.6656 c -7.266896,-7.9443 -11.190749,-18.6744 -14.25,-30.125 -1.464184,-16.5989 -0.612628,-32.1955 9,-44 l 109.9779,-125.495 573.8172,-675.994 c 7.04133,-11.6743 4.67433,-21.6171 -4.06588,-30.9359 l 6.54078,-7.7782 56.7453,48.0832 z"
       id="path4248"
       inkscape:connector-curvature="0"
       sodipodi:nodetypes="ccccccccc" />
    <path
       style="opacity:1;fill:#ca9a54;fill-opacity:1;fill-rule:evenodd;stroke:#ca9a54;stroke-width:0;stroke-linecap:butt;stroke-linejoin:miter;stroke-opacity:1;stroke-miterlimit:4;stroke-dasharray:none"
       d="M 432.20574,522.77104 278.61736,701.46168 c -3.35673,4.04215 -6.10659,8.99856 -6.66162,16.30936 L 1639.9557,1852.0211 c 26.7635,-19.4526 53.2953,-47.0559 74.7227,-68.9805 30.4078,-32.5345 58.0358,-66.5259 84.0127,-100.5374 4.4113,-5.7758 7.0763,-11.6659 11.4248,-17.4626 z"
       id="path4254"
       inkscape:connector-curvature="0"
       sodipodi:nodetypes="cccccscc" />
    <path
       style="opacity:1;fill:#ca9a54;fill-opacity:1;fill-rule:evenodd;stroke:#ca9a54;stroke-width:0;stroke-linecap:butt;stroke-linejoin:miter;stroke-miterlimit:4;stroke-dasharray:none;stroke-opacity:1"
       d="m 1080.2302,945.32687 -161.2203,-135.4109 403.4185,-479.1254 46.5,-69 52.75,-93.25 c 11.0833,-17.16667 22.1013,-34.20259 33.25,-51.5 l 42.3587,-50.114478 9.1413,-10.635572 236.9755,204.95127 -10.8845,12.5834 -32.1887,37.19975 -30.25,27 -64.75,51.75 -121.6523,107.26563 z"
       id="path4256"
       inkscape:connector-curvature="0"
       sodipodi:nodetypes="ccccccccccccccc" />
    <path
       style="opacity:1;fill:#cfd3c3;fill-opacity:1;fill-rule:evenodd;stroke:#cfd3c3;stroke-width:0;stroke-linecap:butt;stroke-linejoin:miter;stroke-miterlimit:4;stroke-dasharray:none;stroke-opacity:1"
       d="M 1497.2906,66.923423 1732.519,273.83277 C 1794.1498,201.66653 1855.8989,128.78588 1917.53,52.876458 L 1684.0799,-145.69761 c -65.5052,68.298506 -127.1644,141.70905 -186.7893,212.621033 z"
       id="path4258"
       inkscape:connector-curvature="0"
       sodipodi:nodetypes="ccccc" />
    <path
       style="opacity:1;fill:#874a16;fill-opacity:1;fill-rule:evenodd;stroke:#874a16;stroke-width:0;stroke-linecap:butt;stroke-linejoin:miter;stroke-miterlimit:4;stroke-dasharray:none;stroke-opacity:1"
       d="m 1648.9909,1845.0406 c -4.5598,4.1127 -9.336,7.5331 -14.3125,10.3125 -9.2529,6.9788 -19.3933,11.3396 -31,11.375 -4.4556,0.1013 -11.4882,-3.258 -20.0625,-8.6875 -238.6037,-184.7254 -473.8175,-394.8747 -708.7118,-607.4203 -13.12155,-7.5186 -23.3505,-5.4617 -31.6431,3.0052 l -694.1137,809.1069 c -20.27882,17.7367 -40.10989,11.9673 -59.9273,5.4801 -22.910252,-12.9223 -43.718057,-28.9983 -63.8163,-46.1387 -16.7915365,-13.9923 -32.2899478,-28.9082 -45.7852,-45.2549 -4.902483,-6.2013 -9.339862,-11.9372 -12.83235,-18.206 l 715.53186,-839.1664 c 4.35568,-5.4767 7.66129,-11.1386 8.03121,-17.3187 -1.15604,-7.4892 -5.8529,-11.659 -10.7043,-15.6839 L 647.1273,1061.0272 C 523.36299,968.287 403.69281,869.40562 287.9284,764.66557 c -9.10905,-7.60775 -15.45849,-17.44668 -16.75,-31.375 -1.57559,-13.00369 0.61898,-23.74528 7.375,-31.75 z"
       id="path4260"
       inkscape:connector-curvature="0"
       sodipodi:nodetypes="ccccccccccccccccccc" />
    <path
       style="opacity:1;fill:#874a16;fill-opacity:1;fill-rule:evenodd;stroke:#874a16;stroke-width:0;stroke-linecap:butt;stroke-linejoin:miter;stroke-miterlimit:4;stroke-dasharray:none;stroke-opacity:1"
       d="m 1706.1716,304.2744 -152.4463,112.83258 c -45.5614,38.19936 -89.4225,77.67396 -127.4948,121.49018 l -359.5876,397.03791 63.7919,32.3192 c -13.221,-12.22021 -13.5561,-25.56469 -1.9446,-39.9515 l 102.2239,-118.90429 272.0593,-312.0109 132.229,-111.3693 c 12.3254,-11.6406 23.2448,-23.48207 33.9411,-35.3554 z"
       id="path4262"
       inkscape:connector-curvature="0"
       sodipodi:nodetypes="ccccccccccc" />
    <path
       style="opacity:1;fill:#874a16;fill-opacity:1;fill-rule:evenodd;stroke:#874a16;stroke-width:0;stroke-linecap:butt;stroke-linejoin:miter;stroke-miterlimit:4;stroke-dasharray:none;stroke-opacity:1"
       d="m 1454.319,117.98207 c -38.1396,66.19573 -57.6782,111.78009 -85.3906,159.5585 l -48,68.25 -91,109.5 -303,361.25 -48.5772,-63.1932 28.9914,22.6274 c 11.14714,7.05756 20.09328,4.3107 27.5772,-4.9497 l 56.9221,-64.7003 300.5203,-352.1392 c 30.8132,-37.09255 59.3763,-75.83564 82.0244,-115.4352 11.9555,-22.69938 24.4195,-45.29705 38.7141,-67.5286 l 25.4559,-35.5322 z"
       id="path4264"
       inkscape:connector-curvature="0"
       sodipodi:nodetypes="cccccccccccccc" />
    <path
       style="fill:#cfd3c3;fill-rule:evenodd;stroke:#cfd3c3;stroke-width:0;stroke-linecap:butt;stroke-linejoin:miter;stroke-opacity:1;fill-opacity:1;stroke-miterlimit:4;stroke-dasharray:none"
       d="m 422.3659,534.22807 1378.0968,1145.82693 27.9657,-41.8894 c 13.9942,-23.998 31.879,-52.2108 24.375,-78.625 L 1573.7907,1320.4471 1317.111,1116.8003 1139.5451,975.44137 881.18945,755.44907 C 807.43674,688.45897 727.25678,616.19012 661.623,565.25697 c -47.10096,-37.72691 -94.76641,-76.19574 -139.3,-110.3086 -24.68974,-7.72411 -46.07318,19.06752 -60.6345,34.4714 z"
       id="path4266"
       inkscape:connector-curvature="0"
       sodipodi:nodetypes="cccccccccccc" />
  </g>
</svg>
